%TF.GenerationSoftware,KiCad,Pcbnew,7.0.7*%
%TF.CreationDate,2024-06-03T23:51:36+07:00*%
%TF.ProjectId,Final Project_Group 4_Electronic Circuit 2,46696e61-6c20-4507-926f-6a6563745f47,rev?*%
%TF.SameCoordinates,Original*%
%TF.FileFunction,Legend,Top*%
%TF.FilePolarity,Positive*%
%FSLAX46Y46*%
G04 Gerber Fmt 4.6, Leading zero omitted, Abs format (unit mm)*
G04 Created by KiCad (PCBNEW 7.0.7) date 2024-06-03 23:51:36*
%MOMM*%
%LPD*%
G01*
G04 APERTURE LIST*
%ADD10C,0.150000*%
%ADD11C,0.120199*%
%ADD12C,0.100000*%
%ADD13C,0.120000*%
%ADD14C,0.250000*%
%ADD15C,0.127000*%
%ADD16C,0.300000*%
%ADD17C,0.254000*%
%ADD18C,0.200000*%
G04 APERTURE END LIST*
D10*
X144018095Y-102919819D02*
X144018095Y-103729342D01*
X144018095Y-103729342D02*
X144065714Y-103824580D01*
X144065714Y-103824580D02*
X144113333Y-103872200D01*
X144113333Y-103872200D02*
X144208571Y-103919819D01*
X144208571Y-103919819D02*
X144399047Y-103919819D01*
X144399047Y-103919819D02*
X144494285Y-103872200D01*
X144494285Y-103872200D02*
X144541904Y-103824580D01*
X144541904Y-103824580D02*
X144589523Y-103729342D01*
X144589523Y-103729342D02*
X144589523Y-102919819D01*
X145589523Y-103919819D02*
X145018095Y-103919819D01*
X145303809Y-103919819D02*
X145303809Y-102919819D01*
X145303809Y-102919819D02*
X145208571Y-103062676D01*
X145208571Y-103062676D02*
X145113333Y-103157914D01*
X145113333Y-103157914D02*
X145018095Y-103205533D01*
X111457142Y-129269580D02*
X111409523Y-129317200D01*
X111409523Y-129317200D02*
X111266666Y-129364819D01*
X111266666Y-129364819D02*
X111171428Y-129364819D01*
X111171428Y-129364819D02*
X111028571Y-129317200D01*
X111028571Y-129317200D02*
X110933333Y-129221961D01*
X110933333Y-129221961D02*
X110885714Y-129126723D01*
X110885714Y-129126723D02*
X110838095Y-128936247D01*
X110838095Y-128936247D02*
X110838095Y-128793390D01*
X110838095Y-128793390D02*
X110885714Y-128602914D01*
X110885714Y-128602914D02*
X110933333Y-128507676D01*
X110933333Y-128507676D02*
X111028571Y-128412438D01*
X111028571Y-128412438D02*
X111171428Y-128364819D01*
X111171428Y-128364819D02*
X111266666Y-128364819D01*
X111266666Y-128364819D02*
X111409523Y-128412438D01*
X111409523Y-128412438D02*
X111457142Y-128460057D01*
X112409523Y-129364819D02*
X111838095Y-129364819D01*
X112123809Y-129364819D02*
X112123809Y-128364819D01*
X112123809Y-128364819D02*
X112028571Y-128507676D01*
X112028571Y-128507676D02*
X111933333Y-128602914D01*
X111933333Y-128602914D02*
X111838095Y-128650533D01*
X112790476Y-128460057D02*
X112838095Y-128412438D01*
X112838095Y-128412438D02*
X112933333Y-128364819D01*
X112933333Y-128364819D02*
X113171428Y-128364819D01*
X113171428Y-128364819D02*
X113266666Y-128412438D01*
X113266666Y-128412438D02*
X113314285Y-128460057D01*
X113314285Y-128460057D02*
X113361904Y-128555295D01*
X113361904Y-128555295D02*
X113361904Y-128650533D01*
X113361904Y-128650533D02*
X113314285Y-128793390D01*
X113314285Y-128793390D02*
X112742857Y-129364819D01*
X112742857Y-129364819D02*
X113361904Y-129364819D01*
X148108333Y-102274819D02*
X147775000Y-101798628D01*
X147536905Y-102274819D02*
X147536905Y-101274819D01*
X147536905Y-101274819D02*
X147917857Y-101274819D01*
X147917857Y-101274819D02*
X148013095Y-101322438D01*
X148013095Y-101322438D02*
X148060714Y-101370057D01*
X148060714Y-101370057D02*
X148108333Y-101465295D01*
X148108333Y-101465295D02*
X148108333Y-101608152D01*
X148108333Y-101608152D02*
X148060714Y-101703390D01*
X148060714Y-101703390D02*
X148013095Y-101751009D01*
X148013095Y-101751009D02*
X147917857Y-101798628D01*
X147917857Y-101798628D02*
X147536905Y-101798628D01*
X148584524Y-102274819D02*
X148775000Y-102274819D01*
X148775000Y-102274819D02*
X148870238Y-102227200D01*
X148870238Y-102227200D02*
X148917857Y-102179580D01*
X148917857Y-102179580D02*
X149013095Y-102036723D01*
X149013095Y-102036723D02*
X149060714Y-101846247D01*
X149060714Y-101846247D02*
X149060714Y-101465295D01*
X149060714Y-101465295D02*
X149013095Y-101370057D01*
X149013095Y-101370057D02*
X148965476Y-101322438D01*
X148965476Y-101322438D02*
X148870238Y-101274819D01*
X148870238Y-101274819D02*
X148679762Y-101274819D01*
X148679762Y-101274819D02*
X148584524Y-101322438D01*
X148584524Y-101322438D02*
X148536905Y-101370057D01*
X148536905Y-101370057D02*
X148489286Y-101465295D01*
X148489286Y-101465295D02*
X148489286Y-101703390D01*
X148489286Y-101703390D02*
X148536905Y-101798628D01*
X148536905Y-101798628D02*
X148584524Y-101846247D01*
X148584524Y-101846247D02*
X148679762Y-101893866D01*
X148679762Y-101893866D02*
X148870238Y-101893866D01*
X148870238Y-101893866D02*
X148965476Y-101846247D01*
X148965476Y-101846247D02*
X149013095Y-101798628D01*
X149013095Y-101798628D02*
X149060714Y-101703390D01*
X104311333Y-121691580D02*
X104263714Y-121739200D01*
X104263714Y-121739200D02*
X104120857Y-121786819D01*
X104120857Y-121786819D02*
X104025619Y-121786819D01*
X104025619Y-121786819D02*
X103882762Y-121739200D01*
X103882762Y-121739200D02*
X103787524Y-121643961D01*
X103787524Y-121643961D02*
X103739905Y-121548723D01*
X103739905Y-121548723D02*
X103692286Y-121358247D01*
X103692286Y-121358247D02*
X103692286Y-121215390D01*
X103692286Y-121215390D02*
X103739905Y-121024914D01*
X103739905Y-121024914D02*
X103787524Y-120929676D01*
X103787524Y-120929676D02*
X103882762Y-120834438D01*
X103882762Y-120834438D02*
X104025619Y-120786819D01*
X104025619Y-120786819D02*
X104120857Y-120786819D01*
X104120857Y-120786819D02*
X104263714Y-120834438D01*
X104263714Y-120834438D02*
X104311333Y-120882057D01*
X105168476Y-120786819D02*
X104978000Y-120786819D01*
X104978000Y-120786819D02*
X104882762Y-120834438D01*
X104882762Y-120834438D02*
X104835143Y-120882057D01*
X104835143Y-120882057D02*
X104739905Y-121024914D01*
X104739905Y-121024914D02*
X104692286Y-121215390D01*
X104692286Y-121215390D02*
X104692286Y-121596342D01*
X104692286Y-121596342D02*
X104739905Y-121691580D01*
X104739905Y-121691580D02*
X104787524Y-121739200D01*
X104787524Y-121739200D02*
X104882762Y-121786819D01*
X104882762Y-121786819D02*
X105073238Y-121786819D01*
X105073238Y-121786819D02*
X105168476Y-121739200D01*
X105168476Y-121739200D02*
X105216095Y-121691580D01*
X105216095Y-121691580D02*
X105263714Y-121596342D01*
X105263714Y-121596342D02*
X105263714Y-121358247D01*
X105263714Y-121358247D02*
X105216095Y-121263009D01*
X105216095Y-121263009D02*
X105168476Y-121215390D01*
X105168476Y-121215390D02*
X105073238Y-121167771D01*
X105073238Y-121167771D02*
X104882762Y-121167771D01*
X104882762Y-121167771D02*
X104787524Y-121215390D01*
X104787524Y-121215390D02*
X104739905Y-121263009D01*
X104739905Y-121263009D02*
X104692286Y-121358247D01*
D11*
X98584756Y-117388768D02*
X98584756Y-117617719D01*
X98424491Y-117136923D02*
X98584756Y-117388768D01*
X98584756Y-117388768D02*
X98745021Y-117136923D01*
X99157132Y-117617719D02*
X98882392Y-117617719D01*
X99019762Y-117617719D02*
X99019762Y-117136923D01*
X99019762Y-117136923D02*
X98973972Y-117205608D01*
X98973972Y-117205608D02*
X98928182Y-117251398D01*
X98928182Y-117251398D02*
X98882392Y-117274293D01*
D10*
X148753333Y-121014580D02*
X148705714Y-121062200D01*
X148705714Y-121062200D02*
X148562857Y-121109819D01*
X148562857Y-121109819D02*
X148467619Y-121109819D01*
X148467619Y-121109819D02*
X148324762Y-121062200D01*
X148324762Y-121062200D02*
X148229524Y-120966961D01*
X148229524Y-120966961D02*
X148181905Y-120871723D01*
X148181905Y-120871723D02*
X148134286Y-120681247D01*
X148134286Y-120681247D02*
X148134286Y-120538390D01*
X148134286Y-120538390D02*
X148181905Y-120347914D01*
X148181905Y-120347914D02*
X148229524Y-120252676D01*
X148229524Y-120252676D02*
X148324762Y-120157438D01*
X148324762Y-120157438D02*
X148467619Y-120109819D01*
X148467619Y-120109819D02*
X148562857Y-120109819D01*
X148562857Y-120109819D02*
X148705714Y-120157438D01*
X148705714Y-120157438D02*
X148753333Y-120205057D01*
X149086667Y-120109819D02*
X149753333Y-120109819D01*
X149753333Y-120109819D02*
X149324762Y-121109819D01*
X169580074Y-80258565D02*
X169580074Y-80895986D01*
X169580074Y-80895986D02*
X169617570Y-80970976D01*
X169617570Y-80970976D02*
X169655065Y-81008472D01*
X169655065Y-81008472D02*
X169730056Y-81045967D01*
X169730056Y-81045967D02*
X169880037Y-81045967D01*
X169880037Y-81045967D02*
X169955028Y-81008472D01*
X169955028Y-81008472D02*
X169992523Y-80970976D01*
X169992523Y-80970976D02*
X170030018Y-80895986D01*
X170030018Y-80895986D02*
X170030018Y-80258565D01*
X170367476Y-80333556D02*
X170404971Y-80296060D01*
X170404971Y-80296060D02*
X170479962Y-80258565D01*
X170479962Y-80258565D02*
X170667439Y-80258565D01*
X170667439Y-80258565D02*
X170742429Y-80296060D01*
X170742429Y-80296060D02*
X170779925Y-80333556D01*
X170779925Y-80333556D02*
X170817420Y-80408546D01*
X170817420Y-80408546D02*
X170817420Y-80483537D01*
X170817420Y-80483537D02*
X170779925Y-80596023D01*
X170779925Y-80596023D02*
X170329981Y-81045967D01*
X170329981Y-81045967D02*
X170817420Y-81045967D01*
X133977142Y-121649580D02*
X133929523Y-121697200D01*
X133929523Y-121697200D02*
X133786666Y-121744819D01*
X133786666Y-121744819D02*
X133691428Y-121744819D01*
X133691428Y-121744819D02*
X133548571Y-121697200D01*
X133548571Y-121697200D02*
X133453333Y-121601961D01*
X133453333Y-121601961D02*
X133405714Y-121506723D01*
X133405714Y-121506723D02*
X133358095Y-121316247D01*
X133358095Y-121316247D02*
X133358095Y-121173390D01*
X133358095Y-121173390D02*
X133405714Y-120982914D01*
X133405714Y-120982914D02*
X133453333Y-120887676D01*
X133453333Y-120887676D02*
X133548571Y-120792438D01*
X133548571Y-120792438D02*
X133691428Y-120744819D01*
X133691428Y-120744819D02*
X133786666Y-120744819D01*
X133786666Y-120744819D02*
X133929523Y-120792438D01*
X133929523Y-120792438D02*
X133977142Y-120840057D01*
X134929523Y-121744819D02*
X134358095Y-121744819D01*
X134643809Y-121744819D02*
X134643809Y-120744819D01*
X134643809Y-120744819D02*
X134548571Y-120887676D01*
X134548571Y-120887676D02*
X134453333Y-120982914D01*
X134453333Y-120982914D02*
X134358095Y-121030533D01*
X135786666Y-120744819D02*
X135596190Y-120744819D01*
X135596190Y-120744819D02*
X135500952Y-120792438D01*
X135500952Y-120792438D02*
X135453333Y-120840057D01*
X135453333Y-120840057D02*
X135358095Y-120982914D01*
X135358095Y-120982914D02*
X135310476Y-121173390D01*
X135310476Y-121173390D02*
X135310476Y-121554342D01*
X135310476Y-121554342D02*
X135358095Y-121649580D01*
X135358095Y-121649580D02*
X135405714Y-121697200D01*
X135405714Y-121697200D02*
X135500952Y-121744819D01*
X135500952Y-121744819D02*
X135691428Y-121744819D01*
X135691428Y-121744819D02*
X135786666Y-121697200D01*
X135786666Y-121697200D02*
X135834285Y-121649580D01*
X135834285Y-121649580D02*
X135881904Y-121554342D01*
X135881904Y-121554342D02*
X135881904Y-121316247D01*
X135881904Y-121316247D02*
X135834285Y-121221009D01*
X135834285Y-121221009D02*
X135786666Y-121173390D01*
X135786666Y-121173390D02*
X135691428Y-121125771D01*
X135691428Y-121125771D02*
X135500952Y-121125771D01*
X135500952Y-121125771D02*
X135405714Y-121173390D01*
X135405714Y-121173390D02*
X135358095Y-121221009D01*
X135358095Y-121221009D02*
X135310476Y-121316247D01*
X119543570Y-95924819D02*
X119210237Y-95448628D01*
X118972142Y-95924819D02*
X118972142Y-94924819D01*
X118972142Y-94924819D02*
X119353094Y-94924819D01*
X119353094Y-94924819D02*
X119448332Y-94972438D01*
X119448332Y-94972438D02*
X119495951Y-95020057D01*
X119495951Y-95020057D02*
X119543570Y-95115295D01*
X119543570Y-95115295D02*
X119543570Y-95258152D01*
X119543570Y-95258152D02*
X119495951Y-95353390D01*
X119495951Y-95353390D02*
X119448332Y-95401009D01*
X119448332Y-95401009D02*
X119353094Y-95448628D01*
X119353094Y-95448628D02*
X118972142Y-95448628D01*
X120353094Y-95877200D02*
X120257856Y-95924819D01*
X120257856Y-95924819D02*
X120067380Y-95924819D01*
X120067380Y-95924819D02*
X119972142Y-95877200D01*
X119972142Y-95877200D02*
X119924523Y-95781961D01*
X119924523Y-95781961D02*
X119924523Y-95401009D01*
X119924523Y-95401009D02*
X119972142Y-95305771D01*
X119972142Y-95305771D02*
X120067380Y-95258152D01*
X120067380Y-95258152D02*
X120257856Y-95258152D01*
X120257856Y-95258152D02*
X120353094Y-95305771D01*
X120353094Y-95305771D02*
X120400713Y-95401009D01*
X120400713Y-95401009D02*
X120400713Y-95496247D01*
X120400713Y-95496247D02*
X119924523Y-95591485D01*
X120781666Y-95877200D02*
X120876904Y-95924819D01*
X120876904Y-95924819D02*
X121067380Y-95924819D01*
X121067380Y-95924819D02*
X121162618Y-95877200D01*
X121162618Y-95877200D02*
X121210237Y-95781961D01*
X121210237Y-95781961D02*
X121210237Y-95734342D01*
X121210237Y-95734342D02*
X121162618Y-95639104D01*
X121162618Y-95639104D02*
X121067380Y-95591485D01*
X121067380Y-95591485D02*
X120924523Y-95591485D01*
X120924523Y-95591485D02*
X120829285Y-95543866D01*
X120829285Y-95543866D02*
X120781666Y-95448628D01*
X120781666Y-95448628D02*
X120781666Y-95401009D01*
X120781666Y-95401009D02*
X120829285Y-95305771D01*
X120829285Y-95305771D02*
X120924523Y-95258152D01*
X120924523Y-95258152D02*
X121067380Y-95258152D01*
X121067380Y-95258152D02*
X121162618Y-95305771D01*
X121638809Y-95924819D02*
X121638809Y-95258152D01*
X121638809Y-94924819D02*
X121591190Y-94972438D01*
X121591190Y-94972438D02*
X121638809Y-95020057D01*
X121638809Y-95020057D02*
X121686428Y-94972438D01*
X121686428Y-94972438D02*
X121638809Y-94924819D01*
X121638809Y-94924819D02*
X121638809Y-95020057D01*
X122067380Y-95877200D02*
X122162618Y-95924819D01*
X122162618Y-95924819D02*
X122353094Y-95924819D01*
X122353094Y-95924819D02*
X122448332Y-95877200D01*
X122448332Y-95877200D02*
X122495951Y-95781961D01*
X122495951Y-95781961D02*
X122495951Y-95734342D01*
X122495951Y-95734342D02*
X122448332Y-95639104D01*
X122448332Y-95639104D02*
X122353094Y-95591485D01*
X122353094Y-95591485D02*
X122210237Y-95591485D01*
X122210237Y-95591485D02*
X122114999Y-95543866D01*
X122114999Y-95543866D02*
X122067380Y-95448628D01*
X122067380Y-95448628D02*
X122067380Y-95401009D01*
X122067380Y-95401009D02*
X122114999Y-95305771D01*
X122114999Y-95305771D02*
X122210237Y-95258152D01*
X122210237Y-95258152D02*
X122353094Y-95258152D01*
X122353094Y-95258152D02*
X122448332Y-95305771D01*
X122781666Y-95258152D02*
X123162618Y-95258152D01*
X122924523Y-94924819D02*
X122924523Y-95781961D01*
X122924523Y-95781961D02*
X122972142Y-95877200D01*
X122972142Y-95877200D02*
X123067380Y-95924819D01*
X123067380Y-95924819D02*
X123162618Y-95924819D01*
X123638809Y-95924819D02*
X123543571Y-95877200D01*
X123543571Y-95877200D02*
X123495952Y-95829580D01*
X123495952Y-95829580D02*
X123448333Y-95734342D01*
X123448333Y-95734342D02*
X123448333Y-95448628D01*
X123448333Y-95448628D02*
X123495952Y-95353390D01*
X123495952Y-95353390D02*
X123543571Y-95305771D01*
X123543571Y-95305771D02*
X123638809Y-95258152D01*
X123638809Y-95258152D02*
X123781666Y-95258152D01*
X123781666Y-95258152D02*
X123876904Y-95305771D01*
X123876904Y-95305771D02*
X123924523Y-95353390D01*
X123924523Y-95353390D02*
X123972142Y-95448628D01*
X123972142Y-95448628D02*
X123972142Y-95734342D01*
X123972142Y-95734342D02*
X123924523Y-95829580D01*
X123924523Y-95829580D02*
X123876904Y-95877200D01*
X123876904Y-95877200D02*
X123781666Y-95924819D01*
X123781666Y-95924819D02*
X123638809Y-95924819D01*
X124400714Y-95924819D02*
X124400714Y-95258152D01*
X124400714Y-95448628D02*
X124448333Y-95353390D01*
X124448333Y-95353390D02*
X124495952Y-95305771D01*
X124495952Y-95305771D02*
X124591190Y-95258152D01*
X124591190Y-95258152D02*
X124686428Y-95258152D01*
X125019762Y-95924819D02*
X125019762Y-94924819D01*
X125019762Y-94924819D02*
X125257857Y-94924819D01*
X125257857Y-94924819D02*
X125400714Y-94972438D01*
X125400714Y-94972438D02*
X125495952Y-95067676D01*
X125495952Y-95067676D02*
X125543571Y-95162914D01*
X125543571Y-95162914D02*
X125591190Y-95353390D01*
X125591190Y-95353390D02*
X125591190Y-95496247D01*
X125591190Y-95496247D02*
X125543571Y-95686723D01*
X125543571Y-95686723D02*
X125495952Y-95781961D01*
X125495952Y-95781961D02*
X125400714Y-95877200D01*
X125400714Y-95877200D02*
X125257857Y-95924819D01*
X125257857Y-95924819D02*
X125019762Y-95924819D01*
X126019762Y-95924819D02*
X126019762Y-94924819D01*
X126019762Y-95401009D02*
X126591190Y-95401009D01*
X126591190Y-95924819D02*
X126591190Y-94924819D01*
X126924524Y-94924819D02*
X127495952Y-94924819D01*
X127210238Y-95924819D02*
X127210238Y-94924819D01*
X127781667Y-95020057D02*
X127829286Y-94972438D01*
X127829286Y-94972438D02*
X127924524Y-94924819D01*
X127924524Y-94924819D02*
X128162619Y-94924819D01*
X128162619Y-94924819D02*
X128257857Y-94972438D01*
X128257857Y-94972438D02*
X128305476Y-95020057D01*
X128305476Y-95020057D02*
X128353095Y-95115295D01*
X128353095Y-95115295D02*
X128353095Y-95210533D01*
X128353095Y-95210533D02*
X128305476Y-95353390D01*
X128305476Y-95353390D02*
X127734048Y-95924819D01*
X127734048Y-95924819D02*
X128353095Y-95924819D01*
X128734048Y-95020057D02*
X128781667Y-94972438D01*
X128781667Y-94972438D02*
X128876905Y-94924819D01*
X128876905Y-94924819D02*
X129115000Y-94924819D01*
X129115000Y-94924819D02*
X129210238Y-94972438D01*
X129210238Y-94972438D02*
X129257857Y-95020057D01*
X129257857Y-95020057D02*
X129305476Y-95115295D01*
X129305476Y-95115295D02*
X129305476Y-95210533D01*
X129305476Y-95210533D02*
X129257857Y-95353390D01*
X129257857Y-95353390D02*
X128686429Y-95924819D01*
X128686429Y-95924819D02*
X129305476Y-95924819D01*
X150618333Y-113069819D02*
X150285000Y-112593628D01*
X150046905Y-113069819D02*
X150046905Y-112069819D01*
X150046905Y-112069819D02*
X150427857Y-112069819D01*
X150427857Y-112069819D02*
X150523095Y-112117438D01*
X150523095Y-112117438D02*
X150570714Y-112165057D01*
X150570714Y-112165057D02*
X150618333Y-112260295D01*
X150618333Y-112260295D02*
X150618333Y-112403152D01*
X150618333Y-112403152D02*
X150570714Y-112498390D01*
X150570714Y-112498390D02*
X150523095Y-112546009D01*
X150523095Y-112546009D02*
X150427857Y-112593628D01*
X150427857Y-112593628D02*
X150046905Y-112593628D01*
X150951667Y-112069819D02*
X151618333Y-112069819D01*
X151618333Y-112069819D02*
X151189762Y-113069819D01*
X127468333Y-121649580D02*
X127420714Y-121697200D01*
X127420714Y-121697200D02*
X127277857Y-121744819D01*
X127277857Y-121744819D02*
X127182619Y-121744819D01*
X127182619Y-121744819D02*
X127039762Y-121697200D01*
X127039762Y-121697200D02*
X126944524Y-121601961D01*
X126944524Y-121601961D02*
X126896905Y-121506723D01*
X126896905Y-121506723D02*
X126849286Y-121316247D01*
X126849286Y-121316247D02*
X126849286Y-121173390D01*
X126849286Y-121173390D02*
X126896905Y-120982914D01*
X126896905Y-120982914D02*
X126944524Y-120887676D01*
X126944524Y-120887676D02*
X127039762Y-120792438D01*
X127039762Y-120792438D02*
X127182619Y-120744819D01*
X127182619Y-120744819D02*
X127277857Y-120744819D01*
X127277857Y-120744819D02*
X127420714Y-120792438D01*
X127420714Y-120792438D02*
X127468333Y-120840057D01*
X127944524Y-121744819D02*
X128135000Y-121744819D01*
X128135000Y-121744819D02*
X128230238Y-121697200D01*
X128230238Y-121697200D02*
X128277857Y-121649580D01*
X128277857Y-121649580D02*
X128373095Y-121506723D01*
X128373095Y-121506723D02*
X128420714Y-121316247D01*
X128420714Y-121316247D02*
X128420714Y-120935295D01*
X128420714Y-120935295D02*
X128373095Y-120840057D01*
X128373095Y-120840057D02*
X128325476Y-120792438D01*
X128325476Y-120792438D02*
X128230238Y-120744819D01*
X128230238Y-120744819D02*
X128039762Y-120744819D01*
X128039762Y-120744819D02*
X127944524Y-120792438D01*
X127944524Y-120792438D02*
X127896905Y-120840057D01*
X127896905Y-120840057D02*
X127849286Y-120935295D01*
X127849286Y-120935295D02*
X127849286Y-121173390D01*
X127849286Y-121173390D02*
X127896905Y-121268628D01*
X127896905Y-121268628D02*
X127944524Y-121316247D01*
X127944524Y-121316247D02*
X128039762Y-121363866D01*
X128039762Y-121363866D02*
X128230238Y-121363866D01*
X128230238Y-121363866D02*
X128325476Y-121316247D01*
X128325476Y-121316247D02*
X128373095Y-121268628D01*
X128373095Y-121268628D02*
X128420714Y-121173390D01*
X123483810Y-109674819D02*
X123483810Y-108674819D01*
X124531428Y-109579580D02*
X124483809Y-109627200D01*
X124483809Y-109627200D02*
X124340952Y-109674819D01*
X124340952Y-109674819D02*
X124245714Y-109674819D01*
X124245714Y-109674819D02*
X124102857Y-109627200D01*
X124102857Y-109627200D02*
X124007619Y-109531961D01*
X124007619Y-109531961D02*
X123960000Y-109436723D01*
X123960000Y-109436723D02*
X123912381Y-109246247D01*
X123912381Y-109246247D02*
X123912381Y-109103390D01*
X123912381Y-109103390D02*
X123960000Y-108912914D01*
X123960000Y-108912914D02*
X124007619Y-108817676D01*
X124007619Y-108817676D02*
X124102857Y-108722438D01*
X124102857Y-108722438D02*
X124245714Y-108674819D01*
X124245714Y-108674819D02*
X124340952Y-108674819D01*
X124340952Y-108674819D02*
X124483809Y-108722438D01*
X124483809Y-108722438D02*
X124531428Y-108770057D01*
X125483809Y-109674819D02*
X124912381Y-109674819D01*
X125198095Y-109674819D02*
X125198095Y-108674819D01*
X125198095Y-108674819D02*
X125102857Y-108817676D01*
X125102857Y-108817676D02*
X125007619Y-108912914D01*
X125007619Y-108912914D02*
X124912381Y-108960533D01*
X126198333Y-129269580D02*
X126150714Y-129317200D01*
X126150714Y-129317200D02*
X126007857Y-129364819D01*
X126007857Y-129364819D02*
X125912619Y-129364819D01*
X125912619Y-129364819D02*
X125769762Y-129317200D01*
X125769762Y-129317200D02*
X125674524Y-129221961D01*
X125674524Y-129221961D02*
X125626905Y-129126723D01*
X125626905Y-129126723D02*
X125579286Y-128936247D01*
X125579286Y-128936247D02*
X125579286Y-128793390D01*
X125579286Y-128793390D02*
X125626905Y-128602914D01*
X125626905Y-128602914D02*
X125674524Y-128507676D01*
X125674524Y-128507676D02*
X125769762Y-128412438D01*
X125769762Y-128412438D02*
X125912619Y-128364819D01*
X125912619Y-128364819D02*
X126007857Y-128364819D01*
X126007857Y-128364819D02*
X126150714Y-128412438D01*
X126150714Y-128412438D02*
X126198333Y-128460057D01*
X126579286Y-128460057D02*
X126626905Y-128412438D01*
X126626905Y-128412438D02*
X126722143Y-128364819D01*
X126722143Y-128364819D02*
X126960238Y-128364819D01*
X126960238Y-128364819D02*
X127055476Y-128412438D01*
X127055476Y-128412438D02*
X127103095Y-128460057D01*
X127103095Y-128460057D02*
X127150714Y-128555295D01*
X127150714Y-128555295D02*
X127150714Y-128650533D01*
X127150714Y-128650533D02*
X127103095Y-128793390D01*
X127103095Y-128793390D02*
X126531667Y-129364819D01*
X126531667Y-129364819D02*
X127150714Y-129364819D01*
X153848333Y-109894819D02*
X153515000Y-109418628D01*
X153276905Y-109894819D02*
X153276905Y-108894819D01*
X153276905Y-108894819D02*
X153657857Y-108894819D01*
X153657857Y-108894819D02*
X153753095Y-108942438D01*
X153753095Y-108942438D02*
X153800714Y-108990057D01*
X153800714Y-108990057D02*
X153848333Y-109085295D01*
X153848333Y-109085295D02*
X153848333Y-109228152D01*
X153848333Y-109228152D02*
X153800714Y-109323390D01*
X153800714Y-109323390D02*
X153753095Y-109371009D01*
X153753095Y-109371009D02*
X153657857Y-109418628D01*
X153657857Y-109418628D02*
X153276905Y-109418628D01*
X154705476Y-108894819D02*
X154515000Y-108894819D01*
X154515000Y-108894819D02*
X154419762Y-108942438D01*
X154419762Y-108942438D02*
X154372143Y-108990057D01*
X154372143Y-108990057D02*
X154276905Y-109132914D01*
X154276905Y-109132914D02*
X154229286Y-109323390D01*
X154229286Y-109323390D02*
X154229286Y-109704342D01*
X154229286Y-109704342D02*
X154276905Y-109799580D01*
X154276905Y-109799580D02*
X154324524Y-109847200D01*
X154324524Y-109847200D02*
X154419762Y-109894819D01*
X154419762Y-109894819D02*
X154610238Y-109894819D01*
X154610238Y-109894819D02*
X154705476Y-109847200D01*
X154705476Y-109847200D02*
X154753095Y-109799580D01*
X154753095Y-109799580D02*
X154800714Y-109704342D01*
X154800714Y-109704342D02*
X154800714Y-109466247D01*
X154800714Y-109466247D02*
X154753095Y-109371009D01*
X154753095Y-109371009D02*
X154705476Y-109323390D01*
X154705476Y-109323390D02*
X154610238Y-109275771D01*
X154610238Y-109275771D02*
X154419762Y-109275771D01*
X154419762Y-109275771D02*
X154324524Y-109323390D01*
X154324524Y-109323390D02*
X154276905Y-109371009D01*
X154276905Y-109371009D02*
X154229286Y-109466247D01*
X120133833Y-121779080D02*
X120086214Y-121826700D01*
X120086214Y-121826700D02*
X119943357Y-121874319D01*
X119943357Y-121874319D02*
X119848119Y-121874319D01*
X119848119Y-121874319D02*
X119705262Y-121826700D01*
X119705262Y-121826700D02*
X119610024Y-121731461D01*
X119610024Y-121731461D02*
X119562405Y-121636223D01*
X119562405Y-121636223D02*
X119514786Y-121445747D01*
X119514786Y-121445747D02*
X119514786Y-121302890D01*
X119514786Y-121302890D02*
X119562405Y-121112414D01*
X119562405Y-121112414D02*
X119610024Y-121017176D01*
X119610024Y-121017176D02*
X119705262Y-120921938D01*
X119705262Y-120921938D02*
X119848119Y-120874319D01*
X119848119Y-120874319D02*
X119943357Y-120874319D01*
X119943357Y-120874319D02*
X120086214Y-120921938D01*
X120086214Y-120921938D02*
X120133833Y-120969557D01*
X120467167Y-120874319D02*
X121086214Y-120874319D01*
X121086214Y-120874319D02*
X120752881Y-121255271D01*
X120752881Y-121255271D02*
X120895738Y-121255271D01*
X120895738Y-121255271D02*
X120990976Y-121302890D01*
X120990976Y-121302890D02*
X121038595Y-121350509D01*
X121038595Y-121350509D02*
X121086214Y-121445747D01*
X121086214Y-121445747D02*
X121086214Y-121683842D01*
X121086214Y-121683842D02*
X121038595Y-121779080D01*
X121038595Y-121779080D02*
X120990976Y-121826700D01*
X120990976Y-121826700D02*
X120895738Y-121874319D01*
X120895738Y-121874319D02*
X120610024Y-121874319D01*
X120610024Y-121874319D02*
X120514786Y-121826700D01*
X120514786Y-121826700D02*
X120467167Y-121779080D01*
X158107142Y-121014580D02*
X158059523Y-121062200D01*
X158059523Y-121062200D02*
X157916666Y-121109819D01*
X157916666Y-121109819D02*
X157821428Y-121109819D01*
X157821428Y-121109819D02*
X157678571Y-121062200D01*
X157678571Y-121062200D02*
X157583333Y-120966961D01*
X157583333Y-120966961D02*
X157535714Y-120871723D01*
X157535714Y-120871723D02*
X157488095Y-120681247D01*
X157488095Y-120681247D02*
X157488095Y-120538390D01*
X157488095Y-120538390D02*
X157535714Y-120347914D01*
X157535714Y-120347914D02*
X157583333Y-120252676D01*
X157583333Y-120252676D02*
X157678571Y-120157438D01*
X157678571Y-120157438D02*
X157821428Y-120109819D01*
X157821428Y-120109819D02*
X157916666Y-120109819D01*
X157916666Y-120109819D02*
X158059523Y-120157438D01*
X158059523Y-120157438D02*
X158107142Y-120205057D01*
X159059523Y-121109819D02*
X158488095Y-121109819D01*
X158773809Y-121109819D02*
X158773809Y-120109819D01*
X158773809Y-120109819D02*
X158678571Y-120252676D01*
X158678571Y-120252676D02*
X158583333Y-120347914D01*
X158583333Y-120347914D02*
X158488095Y-120395533D01*
X159916666Y-120443152D02*
X159916666Y-121109819D01*
X159678571Y-120062200D02*
X159440476Y-120776485D01*
X159440476Y-120776485D02*
X160059523Y-120776485D01*
X157171642Y-129269580D02*
X157124023Y-129317200D01*
X157124023Y-129317200D02*
X156981166Y-129364819D01*
X156981166Y-129364819D02*
X156885928Y-129364819D01*
X156885928Y-129364819D02*
X156743071Y-129317200D01*
X156743071Y-129317200D02*
X156647833Y-129221961D01*
X156647833Y-129221961D02*
X156600214Y-129126723D01*
X156600214Y-129126723D02*
X156552595Y-128936247D01*
X156552595Y-128936247D02*
X156552595Y-128793390D01*
X156552595Y-128793390D02*
X156600214Y-128602914D01*
X156600214Y-128602914D02*
X156647833Y-128507676D01*
X156647833Y-128507676D02*
X156743071Y-128412438D01*
X156743071Y-128412438D02*
X156885928Y-128364819D01*
X156885928Y-128364819D02*
X156981166Y-128364819D01*
X156981166Y-128364819D02*
X157124023Y-128412438D01*
X157124023Y-128412438D02*
X157171642Y-128460057D01*
X158124023Y-129364819D02*
X157552595Y-129364819D01*
X157838309Y-129364819D02*
X157838309Y-128364819D01*
X157838309Y-128364819D02*
X157743071Y-128507676D01*
X157743071Y-128507676D02*
X157647833Y-128602914D01*
X157647833Y-128602914D02*
X157552595Y-128650533D01*
X159076404Y-129364819D02*
X158504976Y-129364819D01*
X158790690Y-129364819D02*
X158790690Y-128364819D01*
X158790690Y-128364819D02*
X158695452Y-128507676D01*
X158695452Y-128507676D02*
X158600214Y-128602914D01*
X158600214Y-128602914D02*
X158504976Y-128650533D01*
X140327142Y-129269580D02*
X140279523Y-129317200D01*
X140279523Y-129317200D02*
X140136666Y-129364819D01*
X140136666Y-129364819D02*
X140041428Y-129364819D01*
X140041428Y-129364819D02*
X139898571Y-129317200D01*
X139898571Y-129317200D02*
X139803333Y-129221961D01*
X139803333Y-129221961D02*
X139755714Y-129126723D01*
X139755714Y-129126723D02*
X139708095Y-128936247D01*
X139708095Y-128936247D02*
X139708095Y-128793390D01*
X139708095Y-128793390D02*
X139755714Y-128602914D01*
X139755714Y-128602914D02*
X139803333Y-128507676D01*
X139803333Y-128507676D02*
X139898571Y-128412438D01*
X139898571Y-128412438D02*
X140041428Y-128364819D01*
X140041428Y-128364819D02*
X140136666Y-128364819D01*
X140136666Y-128364819D02*
X140279523Y-128412438D01*
X140279523Y-128412438D02*
X140327142Y-128460057D01*
X141279523Y-129364819D02*
X140708095Y-129364819D01*
X140993809Y-129364819D02*
X140993809Y-128364819D01*
X140993809Y-128364819D02*
X140898571Y-128507676D01*
X140898571Y-128507676D02*
X140803333Y-128602914D01*
X140803333Y-128602914D02*
X140708095Y-128650533D01*
X142184285Y-128364819D02*
X141708095Y-128364819D01*
X141708095Y-128364819D02*
X141660476Y-128841009D01*
X141660476Y-128841009D02*
X141708095Y-128793390D01*
X141708095Y-128793390D02*
X141803333Y-128745771D01*
X141803333Y-128745771D02*
X142041428Y-128745771D01*
X142041428Y-128745771D02*
X142136666Y-128793390D01*
X142136666Y-128793390D02*
X142184285Y-128841009D01*
X142184285Y-128841009D02*
X142231904Y-128936247D01*
X142231904Y-128936247D02*
X142231904Y-129174342D01*
X142231904Y-129174342D02*
X142184285Y-129269580D01*
X142184285Y-129269580D02*
X142136666Y-129317200D01*
X142136666Y-129317200D02*
X142041428Y-129364819D01*
X142041428Y-129364819D02*
X141803333Y-129364819D01*
X141803333Y-129364819D02*
X141708095Y-129317200D01*
X141708095Y-129317200D02*
X141660476Y-129269580D01*
X141547333Y-121453580D02*
X141499714Y-121501200D01*
X141499714Y-121501200D02*
X141356857Y-121548819D01*
X141356857Y-121548819D02*
X141261619Y-121548819D01*
X141261619Y-121548819D02*
X141118762Y-121501200D01*
X141118762Y-121501200D02*
X141023524Y-121405961D01*
X141023524Y-121405961D02*
X140975905Y-121310723D01*
X140975905Y-121310723D02*
X140928286Y-121120247D01*
X140928286Y-121120247D02*
X140928286Y-120977390D01*
X140928286Y-120977390D02*
X140975905Y-120786914D01*
X140975905Y-120786914D02*
X141023524Y-120691676D01*
X141023524Y-120691676D02*
X141118762Y-120596438D01*
X141118762Y-120596438D02*
X141261619Y-120548819D01*
X141261619Y-120548819D02*
X141356857Y-120548819D01*
X141356857Y-120548819D02*
X141499714Y-120596438D01*
X141499714Y-120596438D02*
X141547333Y-120644057D01*
X142499714Y-121548819D02*
X141928286Y-121548819D01*
X142214000Y-121548819D02*
X142214000Y-120548819D01*
X142214000Y-120548819D02*
X142118762Y-120691676D01*
X142118762Y-120691676D02*
X142023524Y-120786914D01*
X142023524Y-120786914D02*
X141928286Y-120834533D01*
X145538333Y-116244819D02*
X145205000Y-115768628D01*
X144966905Y-116244819D02*
X144966905Y-115244819D01*
X144966905Y-115244819D02*
X145347857Y-115244819D01*
X145347857Y-115244819D02*
X145443095Y-115292438D01*
X145443095Y-115292438D02*
X145490714Y-115340057D01*
X145490714Y-115340057D02*
X145538333Y-115435295D01*
X145538333Y-115435295D02*
X145538333Y-115578152D01*
X145538333Y-115578152D02*
X145490714Y-115673390D01*
X145490714Y-115673390D02*
X145443095Y-115721009D01*
X145443095Y-115721009D02*
X145347857Y-115768628D01*
X145347857Y-115768628D02*
X144966905Y-115768628D01*
X145871667Y-115244819D02*
X146490714Y-115244819D01*
X146490714Y-115244819D02*
X146157381Y-115625771D01*
X146157381Y-115625771D02*
X146300238Y-115625771D01*
X146300238Y-115625771D02*
X146395476Y-115673390D01*
X146395476Y-115673390D02*
X146443095Y-115721009D01*
X146443095Y-115721009D02*
X146490714Y-115816247D01*
X146490714Y-115816247D02*
X146490714Y-116054342D01*
X146490714Y-116054342D02*
X146443095Y-116149580D01*
X146443095Y-116149580D02*
X146395476Y-116197200D01*
X146395476Y-116197200D02*
X146300238Y-116244819D01*
X146300238Y-116244819D02*
X146014524Y-116244819D01*
X146014524Y-116244819D02*
X145919286Y-116197200D01*
X145919286Y-116197200D02*
X145871667Y-116149580D01*
X133783333Y-129269580D02*
X133735714Y-129317200D01*
X133735714Y-129317200D02*
X133592857Y-129364819D01*
X133592857Y-129364819D02*
X133497619Y-129364819D01*
X133497619Y-129364819D02*
X133354762Y-129317200D01*
X133354762Y-129317200D02*
X133259524Y-129221961D01*
X133259524Y-129221961D02*
X133211905Y-129126723D01*
X133211905Y-129126723D02*
X133164286Y-128936247D01*
X133164286Y-128936247D02*
X133164286Y-128793390D01*
X133164286Y-128793390D02*
X133211905Y-128602914D01*
X133211905Y-128602914D02*
X133259524Y-128507676D01*
X133259524Y-128507676D02*
X133354762Y-128412438D01*
X133354762Y-128412438D02*
X133497619Y-128364819D01*
X133497619Y-128364819D02*
X133592857Y-128364819D01*
X133592857Y-128364819D02*
X133735714Y-128412438D01*
X133735714Y-128412438D02*
X133783333Y-128460057D01*
X134354762Y-128793390D02*
X134259524Y-128745771D01*
X134259524Y-128745771D02*
X134211905Y-128698152D01*
X134211905Y-128698152D02*
X134164286Y-128602914D01*
X134164286Y-128602914D02*
X134164286Y-128555295D01*
X134164286Y-128555295D02*
X134211905Y-128460057D01*
X134211905Y-128460057D02*
X134259524Y-128412438D01*
X134259524Y-128412438D02*
X134354762Y-128364819D01*
X134354762Y-128364819D02*
X134545238Y-128364819D01*
X134545238Y-128364819D02*
X134640476Y-128412438D01*
X134640476Y-128412438D02*
X134688095Y-128460057D01*
X134688095Y-128460057D02*
X134735714Y-128555295D01*
X134735714Y-128555295D02*
X134735714Y-128602914D01*
X134735714Y-128602914D02*
X134688095Y-128698152D01*
X134688095Y-128698152D02*
X134640476Y-128745771D01*
X134640476Y-128745771D02*
X134545238Y-128793390D01*
X134545238Y-128793390D02*
X134354762Y-128793390D01*
X134354762Y-128793390D02*
X134259524Y-128841009D01*
X134259524Y-128841009D02*
X134211905Y-128888628D01*
X134211905Y-128888628D02*
X134164286Y-128983866D01*
X134164286Y-128983866D02*
X134164286Y-129174342D01*
X134164286Y-129174342D02*
X134211905Y-129269580D01*
X134211905Y-129269580D02*
X134259524Y-129317200D01*
X134259524Y-129317200D02*
X134354762Y-129364819D01*
X134354762Y-129364819D02*
X134545238Y-129364819D01*
X134545238Y-129364819D02*
X134640476Y-129317200D01*
X134640476Y-129317200D02*
X134688095Y-129269580D01*
X134688095Y-129269580D02*
X134735714Y-129174342D01*
X134735714Y-129174342D02*
X134735714Y-128983866D01*
X134735714Y-128983866D02*
X134688095Y-128888628D01*
X134688095Y-128888628D02*
X134640476Y-128841009D01*
X134640476Y-128841009D02*
X134545238Y-128793390D01*
X112050142Y-121752580D02*
X112002523Y-121800200D01*
X112002523Y-121800200D02*
X111859666Y-121847819D01*
X111859666Y-121847819D02*
X111764428Y-121847819D01*
X111764428Y-121847819D02*
X111621571Y-121800200D01*
X111621571Y-121800200D02*
X111526333Y-121704961D01*
X111526333Y-121704961D02*
X111478714Y-121609723D01*
X111478714Y-121609723D02*
X111431095Y-121419247D01*
X111431095Y-121419247D02*
X111431095Y-121276390D01*
X111431095Y-121276390D02*
X111478714Y-121085914D01*
X111478714Y-121085914D02*
X111526333Y-120990676D01*
X111526333Y-120990676D02*
X111621571Y-120895438D01*
X111621571Y-120895438D02*
X111764428Y-120847819D01*
X111764428Y-120847819D02*
X111859666Y-120847819D01*
X111859666Y-120847819D02*
X112002523Y-120895438D01*
X112002523Y-120895438D02*
X112050142Y-120943057D01*
X113002523Y-121847819D02*
X112431095Y-121847819D01*
X112716809Y-121847819D02*
X112716809Y-120847819D01*
X112716809Y-120847819D02*
X112621571Y-120990676D01*
X112621571Y-120990676D02*
X112526333Y-121085914D01*
X112526333Y-121085914D02*
X112431095Y-121133533D01*
X113335857Y-120847819D02*
X113954904Y-120847819D01*
X113954904Y-120847819D02*
X113621571Y-121228771D01*
X113621571Y-121228771D02*
X113764428Y-121228771D01*
X113764428Y-121228771D02*
X113859666Y-121276390D01*
X113859666Y-121276390D02*
X113907285Y-121324009D01*
X113907285Y-121324009D02*
X113954904Y-121419247D01*
X113954904Y-121419247D02*
X113954904Y-121657342D01*
X113954904Y-121657342D02*
X113907285Y-121752580D01*
X113907285Y-121752580D02*
X113859666Y-121800200D01*
X113859666Y-121800200D02*
X113764428Y-121847819D01*
X113764428Y-121847819D02*
X113478714Y-121847819D01*
X113478714Y-121847819D02*
X113383476Y-121800200D01*
X113383476Y-121800200D02*
X113335857Y-121752580D01*
X153818333Y-107354819D02*
X153485000Y-106878628D01*
X153246905Y-107354819D02*
X153246905Y-106354819D01*
X153246905Y-106354819D02*
X153627857Y-106354819D01*
X153627857Y-106354819D02*
X153723095Y-106402438D01*
X153723095Y-106402438D02*
X153770714Y-106450057D01*
X153770714Y-106450057D02*
X153818333Y-106545295D01*
X153818333Y-106545295D02*
X153818333Y-106688152D01*
X153818333Y-106688152D02*
X153770714Y-106783390D01*
X153770714Y-106783390D02*
X153723095Y-106831009D01*
X153723095Y-106831009D02*
X153627857Y-106878628D01*
X153627857Y-106878628D02*
X153246905Y-106878628D01*
X154675476Y-106688152D02*
X154675476Y-107354819D01*
X154437381Y-106307200D02*
X154199286Y-107021485D01*
X154199286Y-107021485D02*
X154818333Y-107021485D01*
X119283333Y-129364819D02*
X118807143Y-129364819D01*
X118807143Y-129364819D02*
X118807143Y-128364819D01*
X119569048Y-128460057D02*
X119616667Y-128412438D01*
X119616667Y-128412438D02*
X119711905Y-128364819D01*
X119711905Y-128364819D02*
X119950000Y-128364819D01*
X119950000Y-128364819D02*
X120045238Y-128412438D01*
X120045238Y-128412438D02*
X120092857Y-128460057D01*
X120092857Y-128460057D02*
X120140476Y-128555295D01*
X120140476Y-128555295D02*
X120140476Y-128650533D01*
X120140476Y-128650533D02*
X120092857Y-128793390D01*
X120092857Y-128793390D02*
X119521429Y-129364819D01*
X119521429Y-129364819D02*
X120140476Y-129364819D01*
X149163095Y-93209819D02*
X149163095Y-94019342D01*
X149163095Y-94019342D02*
X149210714Y-94114580D01*
X149210714Y-94114580D02*
X149258333Y-94162200D01*
X149258333Y-94162200D02*
X149353571Y-94209819D01*
X149353571Y-94209819D02*
X149544047Y-94209819D01*
X149544047Y-94209819D02*
X149639285Y-94162200D01*
X149639285Y-94162200D02*
X149686904Y-94114580D01*
X149686904Y-94114580D02*
X149734523Y-94019342D01*
X149734523Y-94019342D02*
X149734523Y-93209819D01*
X150639285Y-93543152D02*
X150639285Y-94209819D01*
X150401190Y-93162200D02*
X150163095Y-93876485D01*
X150163095Y-93876485D02*
X150782142Y-93876485D01*
X197993095Y-44244819D02*
X197993095Y-43244819D01*
X197993095Y-43721009D02*
X198564523Y-43721009D01*
X198564523Y-44244819D02*
X198564523Y-43244819D01*
X198945476Y-43244819D02*
X199564523Y-43244819D01*
X199564523Y-43244819D02*
X199231190Y-43625771D01*
X199231190Y-43625771D02*
X199374047Y-43625771D01*
X199374047Y-43625771D02*
X199469285Y-43673390D01*
X199469285Y-43673390D02*
X199516904Y-43721009D01*
X199516904Y-43721009D02*
X199564523Y-43816247D01*
X199564523Y-43816247D02*
X199564523Y-44054342D01*
X199564523Y-44054342D02*
X199516904Y-44149580D01*
X199516904Y-44149580D02*
X199469285Y-44197200D01*
X199469285Y-44197200D02*
X199374047Y-44244819D01*
X199374047Y-44244819D02*
X199088333Y-44244819D01*
X199088333Y-44244819D02*
X198993095Y-44197200D01*
X198993095Y-44197200D02*
X198945476Y-44149580D01*
D12*
X117967419Y-104949523D02*
X116967419Y-104949523D01*
X116967419Y-104949523D02*
X117681704Y-104616190D01*
X117681704Y-104616190D02*
X116967419Y-104282857D01*
X116967419Y-104282857D02*
X117967419Y-104282857D01*
X117967419Y-103282857D02*
X117967419Y-103854285D01*
X117967419Y-103568571D02*
X116967419Y-103568571D01*
X116967419Y-103568571D02*
X117110276Y-103663809D01*
X117110276Y-103663809D02*
X117205514Y-103759047D01*
X117205514Y-103759047D02*
X117253133Y-103854285D01*
D10*
X137497142Y-114244580D02*
X137449523Y-114292200D01*
X137449523Y-114292200D02*
X137306666Y-114339819D01*
X137306666Y-114339819D02*
X137211428Y-114339819D01*
X137211428Y-114339819D02*
X137068571Y-114292200D01*
X137068571Y-114292200D02*
X136973333Y-114196961D01*
X136973333Y-114196961D02*
X136925714Y-114101723D01*
X136925714Y-114101723D02*
X136878095Y-113911247D01*
X136878095Y-113911247D02*
X136878095Y-113768390D01*
X136878095Y-113768390D02*
X136925714Y-113577914D01*
X136925714Y-113577914D02*
X136973333Y-113482676D01*
X136973333Y-113482676D02*
X137068571Y-113387438D01*
X137068571Y-113387438D02*
X137211428Y-113339819D01*
X137211428Y-113339819D02*
X137306666Y-113339819D01*
X137306666Y-113339819D02*
X137449523Y-113387438D01*
X137449523Y-113387438D02*
X137497142Y-113435057D01*
X138449523Y-114339819D02*
X137878095Y-114339819D01*
X138163809Y-114339819D02*
X138163809Y-113339819D01*
X138163809Y-113339819D02*
X138068571Y-113482676D01*
X138068571Y-113482676D02*
X137973333Y-113577914D01*
X137973333Y-113577914D02*
X137878095Y-113625533D01*
X139068571Y-113339819D02*
X139163809Y-113339819D01*
X139163809Y-113339819D02*
X139259047Y-113387438D01*
X139259047Y-113387438D02*
X139306666Y-113435057D01*
X139306666Y-113435057D02*
X139354285Y-113530295D01*
X139354285Y-113530295D02*
X139401904Y-113720771D01*
X139401904Y-113720771D02*
X139401904Y-113958866D01*
X139401904Y-113958866D02*
X139354285Y-114149342D01*
X139354285Y-114149342D02*
X139306666Y-114244580D01*
X139306666Y-114244580D02*
X139259047Y-114292200D01*
X139259047Y-114292200D02*
X139163809Y-114339819D01*
X139163809Y-114339819D02*
X139068571Y-114339819D01*
X139068571Y-114339819D02*
X138973333Y-114292200D01*
X138973333Y-114292200D02*
X138925714Y-114244580D01*
X138925714Y-114244580D02*
X138878095Y-114149342D01*
X138878095Y-114149342D02*
X138830476Y-113958866D01*
X138830476Y-113958866D02*
X138830476Y-113720771D01*
X138830476Y-113720771D02*
X138878095Y-113530295D01*
X138878095Y-113530295D02*
X138925714Y-113435057D01*
X138925714Y-113435057D02*
X138973333Y-113387438D01*
X138973333Y-113387438D02*
X139068571Y-113339819D01*
X123948333Y-92114819D02*
X123615000Y-91638628D01*
X123376905Y-92114819D02*
X123376905Y-91114819D01*
X123376905Y-91114819D02*
X123757857Y-91114819D01*
X123757857Y-91114819D02*
X123853095Y-91162438D01*
X123853095Y-91162438D02*
X123900714Y-91210057D01*
X123900714Y-91210057D02*
X123948333Y-91305295D01*
X123948333Y-91305295D02*
X123948333Y-91448152D01*
X123948333Y-91448152D02*
X123900714Y-91543390D01*
X123900714Y-91543390D02*
X123853095Y-91591009D01*
X123853095Y-91591009D02*
X123757857Y-91638628D01*
X123757857Y-91638628D02*
X123376905Y-91638628D01*
X124900714Y-92114819D02*
X124329286Y-92114819D01*
X124615000Y-92114819D02*
X124615000Y-91114819D01*
X124615000Y-91114819D02*
X124519762Y-91257676D01*
X124519762Y-91257676D02*
X124424524Y-91352914D01*
X124424524Y-91352914D02*
X124329286Y-91400533D01*
X170480307Y-87217792D02*
X170003213Y-87217792D01*
X170003213Y-87217792D02*
X170003213Y-86215894D01*
X170766563Y-87170083D02*
X170909692Y-87217792D01*
X170909692Y-87217792D02*
X171148239Y-87217792D01*
X171148239Y-87217792D02*
X171243658Y-87170083D01*
X171243658Y-87170083D02*
X171291367Y-87122373D01*
X171291367Y-87122373D02*
X171339076Y-87026954D01*
X171339076Y-87026954D02*
X171339076Y-86931535D01*
X171339076Y-86931535D02*
X171291367Y-86836117D01*
X171291367Y-86836117D02*
X171243658Y-86788407D01*
X171243658Y-86788407D02*
X171148239Y-86740698D01*
X171148239Y-86740698D02*
X170957401Y-86692988D01*
X170957401Y-86692988D02*
X170861982Y-86645279D01*
X170861982Y-86645279D02*
X170814273Y-86597569D01*
X170814273Y-86597569D02*
X170766563Y-86502151D01*
X170766563Y-86502151D02*
X170766563Y-86406732D01*
X170766563Y-86406732D02*
X170814273Y-86311313D01*
X170814273Y-86311313D02*
X170861982Y-86263603D01*
X170861982Y-86263603D02*
X170957401Y-86215894D01*
X170957401Y-86215894D02*
X171195948Y-86215894D01*
X171195948Y-86215894D02*
X171339076Y-86263603D01*
X172293265Y-87217792D02*
X171720752Y-87217792D01*
X172007009Y-87217792D02*
X172007009Y-86215894D01*
X172007009Y-86215894D02*
X171911590Y-86359022D01*
X171911590Y-86359022D02*
X171816171Y-86454441D01*
X171816171Y-86454441D02*
X171720752Y-86502151D01*
X136202142Y-104814819D02*
X135868809Y-104338628D01*
X135630714Y-104814819D02*
X135630714Y-103814819D01*
X135630714Y-103814819D02*
X136011666Y-103814819D01*
X136011666Y-103814819D02*
X136106904Y-103862438D01*
X136106904Y-103862438D02*
X136154523Y-103910057D01*
X136154523Y-103910057D02*
X136202142Y-104005295D01*
X136202142Y-104005295D02*
X136202142Y-104148152D01*
X136202142Y-104148152D02*
X136154523Y-104243390D01*
X136154523Y-104243390D02*
X136106904Y-104291009D01*
X136106904Y-104291009D02*
X136011666Y-104338628D01*
X136011666Y-104338628D02*
X135630714Y-104338628D01*
X137154523Y-104814819D02*
X136583095Y-104814819D01*
X136868809Y-104814819D02*
X136868809Y-103814819D01*
X136868809Y-103814819D02*
X136773571Y-103957676D01*
X136773571Y-103957676D02*
X136678333Y-104052914D01*
X136678333Y-104052914D02*
X136583095Y-104100533D01*
X137773571Y-103814819D02*
X137868809Y-103814819D01*
X137868809Y-103814819D02*
X137964047Y-103862438D01*
X137964047Y-103862438D02*
X138011666Y-103910057D01*
X138011666Y-103910057D02*
X138059285Y-104005295D01*
X138059285Y-104005295D02*
X138106904Y-104195771D01*
X138106904Y-104195771D02*
X138106904Y-104433866D01*
X138106904Y-104433866D02*
X138059285Y-104624342D01*
X138059285Y-104624342D02*
X138011666Y-104719580D01*
X138011666Y-104719580D02*
X137964047Y-104767200D01*
X137964047Y-104767200D02*
X137868809Y-104814819D01*
X137868809Y-104814819D02*
X137773571Y-104814819D01*
X137773571Y-104814819D02*
X137678333Y-104767200D01*
X137678333Y-104767200D02*
X137630714Y-104719580D01*
X137630714Y-104719580D02*
X137583095Y-104624342D01*
X137583095Y-104624342D02*
X137535476Y-104433866D01*
X137535476Y-104433866D02*
X137535476Y-104195771D01*
X137535476Y-104195771D02*
X137583095Y-104005295D01*
X137583095Y-104005295D02*
X137630714Y-103910057D01*
X137630714Y-103910057D02*
X137678333Y-103862438D01*
X137678333Y-103862438D02*
X137773571Y-103814819D01*
X187811400Y-91800619D02*
X187841876Y-91709190D01*
X187841876Y-91709190D02*
X187841876Y-91556809D01*
X187841876Y-91556809D02*
X187811400Y-91495857D01*
X187811400Y-91495857D02*
X187780923Y-91465381D01*
X187780923Y-91465381D02*
X187719971Y-91434904D01*
X187719971Y-91434904D02*
X187659019Y-91434904D01*
X187659019Y-91434904D02*
X187598066Y-91465381D01*
X187598066Y-91465381D02*
X187567590Y-91495857D01*
X187567590Y-91495857D02*
X187537114Y-91556809D01*
X187537114Y-91556809D02*
X187506638Y-91678714D01*
X187506638Y-91678714D02*
X187476161Y-91739666D01*
X187476161Y-91739666D02*
X187445685Y-91770143D01*
X187445685Y-91770143D02*
X187384733Y-91800619D01*
X187384733Y-91800619D02*
X187323780Y-91800619D01*
X187323780Y-91800619D02*
X187262828Y-91770143D01*
X187262828Y-91770143D02*
X187232352Y-91739666D01*
X187232352Y-91739666D02*
X187201876Y-91678714D01*
X187201876Y-91678714D02*
X187201876Y-91526333D01*
X187201876Y-91526333D02*
X187232352Y-91434904D01*
X187841876Y-90825380D02*
X187841876Y-91191095D01*
X187841876Y-91008238D02*
X187201876Y-91008238D01*
X187201876Y-91008238D02*
X187293304Y-91069190D01*
X187293304Y-91069190D02*
X187354257Y-91130142D01*
X187354257Y-91130142D02*
X187384733Y-91191095D01*
X104583333Y-129269580D02*
X104535714Y-129317200D01*
X104535714Y-129317200D02*
X104392857Y-129364819D01*
X104392857Y-129364819D02*
X104297619Y-129364819D01*
X104297619Y-129364819D02*
X104154762Y-129317200D01*
X104154762Y-129317200D02*
X104059524Y-129221961D01*
X104059524Y-129221961D02*
X104011905Y-129126723D01*
X104011905Y-129126723D02*
X103964286Y-128936247D01*
X103964286Y-128936247D02*
X103964286Y-128793390D01*
X103964286Y-128793390D02*
X104011905Y-128602914D01*
X104011905Y-128602914D02*
X104059524Y-128507676D01*
X104059524Y-128507676D02*
X104154762Y-128412438D01*
X104154762Y-128412438D02*
X104297619Y-128364819D01*
X104297619Y-128364819D02*
X104392857Y-128364819D01*
X104392857Y-128364819D02*
X104535714Y-128412438D01*
X104535714Y-128412438D02*
X104583333Y-128460057D01*
X105488095Y-128364819D02*
X105011905Y-128364819D01*
X105011905Y-128364819D02*
X104964286Y-128841009D01*
X104964286Y-128841009D02*
X105011905Y-128793390D01*
X105011905Y-128793390D02*
X105107143Y-128745771D01*
X105107143Y-128745771D02*
X105345238Y-128745771D01*
X105345238Y-128745771D02*
X105440476Y-128793390D01*
X105440476Y-128793390D02*
X105488095Y-128841009D01*
X105488095Y-128841009D02*
X105535714Y-128936247D01*
X105535714Y-128936247D02*
X105535714Y-129174342D01*
X105535714Y-129174342D02*
X105488095Y-129269580D01*
X105488095Y-129269580D02*
X105440476Y-129317200D01*
X105440476Y-129317200D02*
X105345238Y-129364819D01*
X105345238Y-129364819D02*
X105107143Y-129364819D01*
X105107143Y-129364819D02*
X105011905Y-129317200D01*
X105011905Y-129317200D02*
X104964286Y-129269580D01*
X76443333Y-110197533D02*
X76910000Y-110197533D01*
X77110000Y-110930866D02*
X76443333Y-110930866D01*
X76443333Y-110930866D02*
X76443333Y-109530866D01*
X76443333Y-109530866D02*
X77110000Y-109530866D01*
X78443333Y-110930866D02*
X77643333Y-110930866D01*
X78043333Y-110930866D02*
X78043333Y-109530866D01*
X78043333Y-109530866D02*
X77910000Y-109730866D01*
X77910000Y-109730866D02*
X77776667Y-109864200D01*
X77776667Y-109864200D02*
X77643333Y-109930866D01*
X197993095Y-133779819D02*
X197993095Y-132779819D01*
X197993095Y-133256009D02*
X198564523Y-133256009D01*
X198564523Y-133779819D02*
X198564523Y-132779819D01*
X199469285Y-133113152D02*
X199469285Y-133779819D01*
X199231190Y-132732200D02*
X198993095Y-133446485D01*
X198993095Y-133446485D02*
X199612142Y-133446485D01*
X104249819Y-84619404D02*
X105059342Y-84619404D01*
X105059342Y-84619404D02*
X105154580Y-84571785D01*
X105154580Y-84571785D02*
X105202200Y-84524166D01*
X105202200Y-84524166D02*
X105249819Y-84428928D01*
X105249819Y-84428928D02*
X105249819Y-84238452D01*
X105249819Y-84238452D02*
X105202200Y-84143214D01*
X105202200Y-84143214D02*
X105154580Y-84095595D01*
X105154580Y-84095595D02*
X105059342Y-84047976D01*
X105059342Y-84047976D02*
X104249819Y-84047976D01*
X104249819Y-83095595D02*
X104249819Y-83571785D01*
X104249819Y-83571785D02*
X104726009Y-83619404D01*
X104726009Y-83619404D02*
X104678390Y-83571785D01*
X104678390Y-83571785D02*
X104630771Y-83476547D01*
X104630771Y-83476547D02*
X104630771Y-83238452D01*
X104630771Y-83238452D02*
X104678390Y-83143214D01*
X104678390Y-83143214D02*
X104726009Y-83095595D01*
X104726009Y-83095595D02*
X104821247Y-83047976D01*
X104821247Y-83047976D02*
X105059342Y-83047976D01*
X105059342Y-83047976D02*
X105154580Y-83095595D01*
X105154580Y-83095595D02*
X105202200Y-83143214D01*
X105202200Y-83143214D02*
X105249819Y-83238452D01*
X105249819Y-83238452D02*
X105249819Y-83476547D01*
X105249819Y-83476547D02*
X105202200Y-83571785D01*
X105202200Y-83571785D02*
X105154580Y-83619404D01*
X53848095Y-133779819D02*
X53848095Y-132779819D01*
X53848095Y-133256009D02*
X54419523Y-133256009D01*
X54419523Y-133779819D02*
X54419523Y-132779819D01*
X54848095Y-132875057D02*
X54895714Y-132827438D01*
X54895714Y-132827438D02*
X54990952Y-132779819D01*
X54990952Y-132779819D02*
X55229047Y-132779819D01*
X55229047Y-132779819D02*
X55324285Y-132827438D01*
X55324285Y-132827438D02*
X55371904Y-132875057D01*
X55371904Y-132875057D02*
X55419523Y-132970295D01*
X55419523Y-132970295D02*
X55419523Y-133065533D01*
X55419523Y-133065533D02*
X55371904Y-133208390D01*
X55371904Y-133208390D02*
X54800476Y-133779819D01*
X54800476Y-133779819D02*
X55419523Y-133779819D01*
X54483095Y-44879819D02*
X54483095Y-43879819D01*
X54483095Y-44356009D02*
X55054523Y-44356009D01*
X55054523Y-44879819D02*
X55054523Y-43879819D01*
X56054523Y-44879819D02*
X55483095Y-44879819D01*
X55768809Y-44879819D02*
X55768809Y-43879819D01*
X55768809Y-43879819D02*
X55673571Y-44022676D01*
X55673571Y-44022676D02*
X55578333Y-44117914D01*
X55578333Y-44117914D02*
X55483095Y-44165533D01*
X165898333Y-129364819D02*
X165422143Y-129364819D01*
X165422143Y-129364819D02*
X165422143Y-128364819D01*
X166755476Y-129364819D02*
X166184048Y-129364819D01*
X166469762Y-129364819D02*
X166469762Y-128364819D01*
X166469762Y-128364819D02*
X166374524Y-128507676D01*
X166374524Y-128507676D02*
X166279286Y-128602914D01*
X166279286Y-128602914D02*
X166184048Y-128650533D01*
X150618333Y-109894819D02*
X150285000Y-109418628D01*
X150046905Y-109894819D02*
X150046905Y-108894819D01*
X150046905Y-108894819D02*
X150427857Y-108894819D01*
X150427857Y-108894819D02*
X150523095Y-108942438D01*
X150523095Y-108942438D02*
X150570714Y-108990057D01*
X150570714Y-108990057D02*
X150618333Y-109085295D01*
X150618333Y-109085295D02*
X150618333Y-109228152D01*
X150618333Y-109228152D02*
X150570714Y-109323390D01*
X150570714Y-109323390D02*
X150523095Y-109371009D01*
X150523095Y-109371009D02*
X150427857Y-109418628D01*
X150427857Y-109418628D02*
X150046905Y-109418628D01*
X151189762Y-109323390D02*
X151094524Y-109275771D01*
X151094524Y-109275771D02*
X151046905Y-109228152D01*
X151046905Y-109228152D02*
X150999286Y-109132914D01*
X150999286Y-109132914D02*
X150999286Y-109085295D01*
X150999286Y-109085295D02*
X151046905Y-108990057D01*
X151046905Y-108990057D02*
X151094524Y-108942438D01*
X151094524Y-108942438D02*
X151189762Y-108894819D01*
X151189762Y-108894819D02*
X151380238Y-108894819D01*
X151380238Y-108894819D02*
X151475476Y-108942438D01*
X151475476Y-108942438D02*
X151523095Y-108990057D01*
X151523095Y-108990057D02*
X151570714Y-109085295D01*
X151570714Y-109085295D02*
X151570714Y-109132914D01*
X151570714Y-109132914D02*
X151523095Y-109228152D01*
X151523095Y-109228152D02*
X151475476Y-109275771D01*
X151475476Y-109275771D02*
X151380238Y-109323390D01*
X151380238Y-109323390D02*
X151189762Y-109323390D01*
X151189762Y-109323390D02*
X151094524Y-109371009D01*
X151094524Y-109371009D02*
X151046905Y-109418628D01*
X151046905Y-109418628D02*
X150999286Y-109513866D01*
X150999286Y-109513866D02*
X150999286Y-109704342D01*
X150999286Y-109704342D02*
X151046905Y-109799580D01*
X151046905Y-109799580D02*
X151094524Y-109847200D01*
X151094524Y-109847200D02*
X151189762Y-109894819D01*
X151189762Y-109894819D02*
X151380238Y-109894819D01*
X151380238Y-109894819D02*
X151475476Y-109847200D01*
X151475476Y-109847200D02*
X151523095Y-109799580D01*
X151523095Y-109799580D02*
X151570714Y-109704342D01*
X151570714Y-109704342D02*
X151570714Y-109513866D01*
X151570714Y-109513866D02*
X151523095Y-109418628D01*
X151523095Y-109418628D02*
X151475476Y-109371009D01*
X151475476Y-109371009D02*
X151380238Y-109323390D01*
X132438682Y-95806645D02*
X132438682Y-96617207D01*
X132438682Y-96617207D02*
X132486362Y-96712567D01*
X132486362Y-96712567D02*
X132534043Y-96760248D01*
X132534043Y-96760248D02*
X132629403Y-96807928D01*
X132629403Y-96807928D02*
X132820123Y-96807928D01*
X132820123Y-96807928D02*
X132915484Y-96760248D01*
X132915484Y-96760248D02*
X132963164Y-96712567D01*
X132963164Y-96712567D02*
X133010844Y-96617207D01*
X133010844Y-96617207D02*
X133010844Y-95806645D01*
X133392285Y-95806645D02*
X134012127Y-95806645D01*
X134012127Y-95806645D02*
X133678366Y-96188086D01*
X133678366Y-96188086D02*
X133821406Y-96188086D01*
X133821406Y-96188086D02*
X133916767Y-96235766D01*
X133916767Y-96235766D02*
X133964447Y-96283446D01*
X133964447Y-96283446D02*
X134012127Y-96378806D01*
X134012127Y-96378806D02*
X134012127Y-96617207D01*
X134012127Y-96617207D02*
X133964447Y-96712567D01*
X133964447Y-96712567D02*
X133916767Y-96760248D01*
X133916767Y-96760248D02*
X133821406Y-96807928D01*
X133821406Y-96807928D02*
X133535325Y-96807928D01*
X133535325Y-96807928D02*
X133439965Y-96760248D01*
X133439965Y-96760248D02*
X133392285Y-96712567D01*
X150618333Y-106084819D02*
X150285000Y-105608628D01*
X150046905Y-106084819D02*
X150046905Y-105084819D01*
X150046905Y-105084819D02*
X150427857Y-105084819D01*
X150427857Y-105084819D02*
X150523095Y-105132438D01*
X150523095Y-105132438D02*
X150570714Y-105180057D01*
X150570714Y-105180057D02*
X150618333Y-105275295D01*
X150618333Y-105275295D02*
X150618333Y-105418152D01*
X150618333Y-105418152D02*
X150570714Y-105513390D01*
X150570714Y-105513390D02*
X150523095Y-105561009D01*
X150523095Y-105561009D02*
X150427857Y-105608628D01*
X150427857Y-105608628D02*
X150046905Y-105608628D01*
X151523095Y-105084819D02*
X151046905Y-105084819D01*
X151046905Y-105084819D02*
X150999286Y-105561009D01*
X150999286Y-105561009D02*
X151046905Y-105513390D01*
X151046905Y-105513390D02*
X151142143Y-105465771D01*
X151142143Y-105465771D02*
X151380238Y-105465771D01*
X151380238Y-105465771D02*
X151475476Y-105513390D01*
X151475476Y-105513390D02*
X151523095Y-105561009D01*
X151523095Y-105561009D02*
X151570714Y-105656247D01*
X151570714Y-105656247D02*
X151570714Y-105894342D01*
X151570714Y-105894342D02*
X151523095Y-105989580D01*
X151523095Y-105989580D02*
X151475476Y-106037200D01*
X151475476Y-106037200D02*
X151380238Y-106084819D01*
X151380238Y-106084819D02*
X151142143Y-106084819D01*
X151142143Y-106084819D02*
X151046905Y-106037200D01*
X151046905Y-106037200D02*
X150999286Y-105989580D01*
X148086833Y-129263080D02*
X148039214Y-129310700D01*
X148039214Y-129310700D02*
X147896357Y-129358319D01*
X147896357Y-129358319D02*
X147801119Y-129358319D01*
X147801119Y-129358319D02*
X147658262Y-129310700D01*
X147658262Y-129310700D02*
X147563024Y-129215461D01*
X147563024Y-129215461D02*
X147515405Y-129120223D01*
X147515405Y-129120223D02*
X147467786Y-128929747D01*
X147467786Y-128929747D02*
X147467786Y-128786890D01*
X147467786Y-128786890D02*
X147515405Y-128596414D01*
X147515405Y-128596414D02*
X147563024Y-128501176D01*
X147563024Y-128501176D02*
X147658262Y-128405938D01*
X147658262Y-128405938D02*
X147801119Y-128358319D01*
X147801119Y-128358319D02*
X147896357Y-128358319D01*
X147896357Y-128358319D02*
X148039214Y-128405938D01*
X148039214Y-128405938D02*
X148086833Y-128453557D01*
X148943976Y-128691652D02*
X148943976Y-129358319D01*
X148705881Y-128310700D02*
X148467786Y-129024985D01*
X148467786Y-129024985D02*
X149086833Y-129024985D01*
X98486009Y-57700714D02*
X98533628Y-57557857D01*
X98533628Y-57557857D02*
X98581247Y-57510238D01*
X98581247Y-57510238D02*
X98676485Y-57462619D01*
X98676485Y-57462619D02*
X98819342Y-57462619D01*
X98819342Y-57462619D02*
X98914580Y-57510238D01*
X98914580Y-57510238D02*
X98962200Y-57557857D01*
X98962200Y-57557857D02*
X99009819Y-57653095D01*
X99009819Y-57653095D02*
X99009819Y-58034047D01*
X99009819Y-58034047D02*
X98009819Y-58034047D01*
X98009819Y-58034047D02*
X98009819Y-57700714D01*
X98009819Y-57700714D02*
X98057438Y-57605476D01*
X98057438Y-57605476D02*
X98105057Y-57557857D01*
X98105057Y-57557857D02*
X98200295Y-57510238D01*
X98200295Y-57510238D02*
X98295533Y-57510238D01*
X98295533Y-57510238D02*
X98390771Y-57557857D01*
X98390771Y-57557857D02*
X98438390Y-57605476D01*
X98438390Y-57605476D02*
X98486009Y-57700714D01*
X98486009Y-57700714D02*
X98486009Y-58034047D01*
X98009819Y-57176904D02*
X98009819Y-56605476D01*
X99009819Y-56891190D02*
X98009819Y-56891190D01*
X99009819Y-55748333D02*
X99009819Y-56319761D01*
X99009819Y-56034047D02*
X98009819Y-56034047D01*
X98009819Y-56034047D02*
X98152676Y-56129285D01*
X98152676Y-56129285D02*
X98247914Y-56224523D01*
X98247914Y-56224523D02*
X98295533Y-56319761D01*
X123948333Y-101004819D02*
X123615000Y-100528628D01*
X123376905Y-101004819D02*
X123376905Y-100004819D01*
X123376905Y-100004819D02*
X123757857Y-100004819D01*
X123757857Y-100004819D02*
X123853095Y-100052438D01*
X123853095Y-100052438D02*
X123900714Y-100100057D01*
X123900714Y-100100057D02*
X123948333Y-100195295D01*
X123948333Y-100195295D02*
X123948333Y-100338152D01*
X123948333Y-100338152D02*
X123900714Y-100433390D01*
X123900714Y-100433390D02*
X123853095Y-100481009D01*
X123853095Y-100481009D02*
X123757857Y-100528628D01*
X123757857Y-100528628D02*
X123376905Y-100528628D01*
X124329286Y-100100057D02*
X124376905Y-100052438D01*
X124376905Y-100052438D02*
X124472143Y-100004819D01*
X124472143Y-100004819D02*
X124710238Y-100004819D01*
X124710238Y-100004819D02*
X124805476Y-100052438D01*
X124805476Y-100052438D02*
X124853095Y-100100057D01*
X124853095Y-100100057D02*
X124900714Y-100195295D01*
X124900714Y-100195295D02*
X124900714Y-100290533D01*
X124900714Y-100290533D02*
X124853095Y-100433390D01*
X124853095Y-100433390D02*
X124281667Y-101004819D01*
X124281667Y-101004819D02*
X124900714Y-101004819D01*
D13*
%TO.C,U1*%
X141280000Y-105085000D02*
X141816000Y-105085000D01*
X141280000Y-105621000D02*
X141280000Y-105085000D01*
X141280000Y-111549000D02*
X141280000Y-112085000D01*
X141280000Y-112085000D02*
X141816000Y-112085000D01*
X148280000Y-105085000D02*
X147744000Y-105085000D01*
X148280000Y-105621000D02*
X148280000Y-105085000D01*
X148280000Y-111549000D02*
X148280000Y-112085000D01*
X148280000Y-112085000D02*
X147744000Y-112085000D01*
D14*
X140901000Y-105371000D02*
G75*
G03*
X140901000Y-105371000I-125000J0D01*
G01*
D13*
%TO.C,C12*%
X111264758Y-129900000D02*
X112935242Y-129900000D01*
X111264758Y-131720000D02*
X112935242Y-131720000D01*
%TO.C,C6*%
X103642758Y-122322000D02*
X105313242Y-122322000D01*
X103642758Y-124142000D02*
X105313242Y-124142000D01*
D15*
%TO.C,Y1*%
X97740000Y-120030000D02*
X97740000Y-119190000D01*
X98750000Y-118010000D02*
X99230000Y-118010000D01*
X98750000Y-121210000D02*
X99230000Y-121210000D01*
X100240000Y-119190000D02*
X100240000Y-120030000D01*
D16*
X96890000Y-118410000D02*
G75*
G03*
X96890000Y-118410000I-100000J0D01*
G01*
D13*
%TO.C,C7*%
X148084758Y-121645000D02*
X149755242Y-121645000D01*
X148084758Y-123465000D02*
X149755242Y-123465000D01*
D17*
%TO.C,U2*%
X162560000Y-57829500D02*
X165100000Y-52749500D01*
X162560000Y-57829500D02*
X177800000Y-57829500D01*
X162560000Y-78149500D02*
X162560000Y-57829500D01*
X165100000Y-52749500D02*
X175260000Y-52749500D01*
X170180000Y-78149500D02*
X162560000Y-78149500D01*
X175260000Y-52749500D02*
X177800000Y-57829500D01*
X177800000Y-78149500D02*
X170180000Y-78149500D01*
X177800000Y-78149500D02*
X177800000Y-57829500D01*
D13*
%TO.C,C16*%
X133784758Y-122280000D02*
X135455242Y-122280000D01*
X133784758Y-124100000D02*
X135455242Y-124100000D01*
%TO.C,C9*%
X126799758Y-122280000D02*
X128470242Y-122280000D01*
X126799758Y-124100000D02*
X128470242Y-124100000D01*
%TO.C,C2*%
X125529758Y-129900000D02*
X127200242Y-129900000D01*
X125529758Y-131720000D02*
X127200242Y-131720000D01*
%TO.C,C3*%
X119465258Y-122409500D02*
X121135742Y-122409500D01*
X119465258Y-124229500D02*
X121135742Y-124229500D01*
%TO.C,C14*%
X157914758Y-121645000D02*
X159585242Y-121645000D01*
X157914758Y-123465000D02*
X159585242Y-123465000D01*
%TO.C,C11*%
X156979258Y-129900000D02*
X158649742Y-129900000D01*
X156979258Y-131720000D02*
X158649742Y-131720000D01*
%TO.C,C15*%
X140134758Y-129900000D02*
X141805242Y-129900000D01*
X140134758Y-131720000D02*
X141805242Y-131720000D01*
%TO.C,C1*%
X140878758Y-122084000D02*
X142549242Y-122084000D01*
X140878758Y-123904000D02*
X142549242Y-123904000D01*
%TO.C,C8*%
X133114758Y-129900000D02*
X134785242Y-129900000D01*
X133114758Y-131720000D02*
X134785242Y-131720000D01*
%TO.C,C13*%
X111857758Y-122383000D02*
X113528242Y-122383000D01*
X111857758Y-124203000D02*
X113528242Y-124203000D01*
%TO.C,L2*%
X118614758Y-129900000D02*
X120285242Y-129900000D01*
X118614758Y-131720000D02*
X120285242Y-131720000D01*
%TO.C,U4*%
X149925000Y-94595000D02*
X146475000Y-94595000D01*
X149925000Y-94595000D02*
X151875000Y-94595000D01*
X149925000Y-99715000D02*
X147975000Y-99715000D01*
X149925000Y-99715000D02*
X151875000Y-99715000D01*
D12*
%TO.C,M1*%
X105310000Y-118110000D02*
X115470000Y-118110000D01*
X115470000Y-118110000D02*
X115470000Y-90170000D01*
X115470000Y-90170000D02*
X105310000Y-90170000D01*
X105310000Y-90170000D02*
X105310000Y-118110000D01*
D15*
%TO.C,LS1*%
X186450000Y-104140000D02*
G75*
G03*
X186450000Y-104140000I-15000000J0D01*
G01*
%TO.C,S1*%
X188500000Y-93430000D02*
X192500000Y-93430000D01*
X192500000Y-93430000D02*
X192500000Y-81830000D01*
X188500000Y-81830000D02*
X188500000Y-93430000D01*
X192500000Y-81830000D02*
X188500000Y-81830000D01*
D18*
X190600000Y-94130000D02*
G75*
G03*
X190600000Y-94130000I-100000J0D01*
G01*
D13*
%TO.C,C5*%
X103914758Y-129900000D02*
X105585242Y-129900000D01*
X103914758Y-131720000D02*
X105585242Y-131720000D01*
D15*
%TO.C,E1*%
X73115000Y-113540000D02*
X85815000Y-113540000D01*
X73115000Y-121090000D02*
X73115000Y-113540000D01*
X85815000Y-113540000D02*
X85815000Y-121090000D01*
D18*
X72665000Y-123080000D02*
G75*
G03*
X72665000Y-123080000I-100000J0D01*
G01*
D13*
%TO.C,U5*%
X136545000Y-87157500D02*
X140545000Y-87157500D01*
X105625000Y-85877500D02*
X135545000Y-85877500D01*
X105625000Y-85877500D02*
X105625000Y-69017500D01*
X151865000Y-85877500D02*
X151545000Y-85877500D01*
X110145000Y-72907500D02*
X110145000Y-55907500D01*
X145545000Y-72907500D02*
X110145000Y-72907500D01*
X145545000Y-72907500D02*
X145545000Y-55907500D01*
X104675000Y-69017500D02*
X105605000Y-69017500D01*
X104675000Y-60717500D02*
X104675000Y-69017500D01*
X105615000Y-60717500D02*
X104675000Y-60717500D01*
X105625000Y-60717500D02*
X105625000Y-52637500D01*
X110145000Y-55907500D02*
X145545000Y-55907500D01*
X105625000Y-52637500D02*
X151865000Y-52637500D01*
X151865000Y-52637500D02*
X151865000Y-85877500D01*
%TO.C,L1*%
X165229758Y-129900000D02*
X166900242Y-129900000D01*
X165229758Y-131720000D02*
X166900242Y-131720000D01*
D15*
%TO.C,U3*%
X131195000Y-99090000D02*
X132755000Y-99090000D01*
X132755000Y-97490000D02*
X131195000Y-97490000D01*
D18*
X129975000Y-97790000D02*
G75*
G03*
X129975000Y-97790000I-100000J0D01*
G01*
D13*
%TO.C,C4*%
X147418258Y-129893500D02*
X149088742Y-129893500D01*
X147418258Y-131713500D02*
X149088742Y-131713500D01*
D15*
%TO.C,BT1*%
X87560000Y-49540000D02*
X87560000Y-51040000D01*
X74860000Y-49540000D02*
X74860000Y-51040000D01*
X86810000Y-50290000D02*
X88310000Y-50290000D01*
X96520000Y-52280000D02*
X96520000Y-110280000D01*
X66020000Y-52280000D02*
X96520000Y-52280000D01*
X96520000Y-110280000D02*
X66020000Y-110280000D01*
X66020000Y-110280000D02*
X66020000Y-52280000D01*
%TD*%
M02*
