%TF.GenerationSoftware,KiCad,Pcbnew,7.0.7*%
%TF.CreationDate,2024-06-03T23:51:36+07:00*%
%TF.ProjectId,Final Project_Group 4_Electronic Circuit 2,46696e61-6c20-4507-926f-6a6563745f47,rev?*%
%TF.SameCoordinates,Original*%
%TF.FileFunction,Copper,L2,Inr*%
%TF.FilePolarity,Positive*%
%FSLAX46Y46*%
G04 Gerber Fmt 4.6, Leading zero omitted, Abs format (unit mm)*
G04 Created by KiCad (PCBNEW 7.0.7) date 2024-06-03 23:51:36*
%MOMM*%
%LPD*%
G01*
G04 APERTURE LIST*
%TA.AperFunction,ComponentPad*%
%ADD10O,1.308000X2.616000*%
%TD*%
%TA.AperFunction,ComponentPad*%
%ADD11C,1.950000*%
%TD*%
%TA.AperFunction,ComponentPad*%
%ADD12R,1.408000X1.408000*%
%TD*%
%TA.AperFunction,ComponentPad*%
%ADD13C,1.408000*%
%TD*%
%TA.AperFunction,ComponentPad*%
%ADD14R,1.500000X1.500000*%
%TD*%
%TA.AperFunction,ComponentPad*%
%ADD15C,1.500000*%
%TD*%
%TA.AperFunction,ComponentPad*%
%ADD16C,1.755000*%
%TD*%
%TA.AperFunction,ViaPad*%
%ADD17C,0.800000*%
%TD*%
%TA.AperFunction,Conductor*%
%ADD18C,0.250000*%
%TD*%
G04 APERTURE END LIST*
D10*
%TO.N,Net-(ResistorDHT22-Pad1)*%
%TO.C,U2*%
X168910000Y-80689500D03*
%TO.N,Net-(IC1-GND)*%
X173990000Y-80689500D03*
%TO.N,unconnected-(U2-NULL-PadNC)*%
X171450000Y-80689500D03*
%TO.N,Net-(IC1-VCC)*%
X166370000Y-80689500D03*
%TD*%
D11*
%TO.N,Net-(IC1-GND)*%
%TO.C,LS1*%
X163850000Y-104140000D03*
X179050000Y-104140000D03*
%TD*%
D12*
%TO.N,Net-(IC1-GND)*%
%TO.C,S1*%
X190500000Y-90130000D03*
D13*
%TO.N,Net-(IC1-VCC)*%
X190500000Y-87630000D03*
%TO.N,Net-(R1-Pad2)*%
X190500000Y-85130000D03*
%TD*%
D14*
%TO.N,Net-(IC1-GND)*%
%TO.C,U5*%
X137545000Y-85907500D03*
D15*
%TO.N,Net-(IC1-VCC)*%
X140085000Y-85907500D03*
%TO.N,unconnected-(U5-VLCD-Pad3)*%
X142625000Y-85907500D03*
%TO.N,unconnected-(U5-V0-Pad4)*%
X145165000Y-85907500D03*
%TO.N,Net-(U1-IO4)*%
X147705000Y-85907500D03*
%TO.N,Net-(U1-IO5)*%
X150245000Y-85907500D03*
%TD*%
D16*
%TO.N,Net-(U4-VI)*%
%TO.C,BT1*%
X87910000Y-55120000D03*
%TO.N,Net-(IC1-GND)*%
X74320000Y-55120000D03*
%TD*%
D17*
%TO.N,Net-(U4-VI)*%
X146530900Y-94330900D03*
%TO.N,Net-(IC1-GND)*%
X107850000Y-92217500D03*
%TO.N,Net-(Y1-VDD)*%
X129610200Y-112324800D03*
X141415200Y-129914200D03*
%TO.N,Net-(U1-XTAL_N)*%
X136701700Y-121627800D03*
X98335900Y-117487200D03*
%TO.N,Net-(ResistorDHT22-Pad1)*%
X123795000Y-95716400D03*
%TD*%
D18*
%TO.N,Net-(U4-VI)*%
X87910000Y-55120000D02*
X127120800Y-94330800D01*
X146530900Y-94330800D02*
X146530900Y-94330900D01*
X127120800Y-94330800D02*
X146530900Y-94330800D01*
%TO.N,Net-(IC1-GND)*%
X139564100Y-86984400D02*
X138621900Y-86042200D01*
X186663300Y-94997600D02*
X173990000Y-82324400D01*
X186663300Y-94997600D02*
X179050000Y-102610900D01*
X190500000Y-91160900D02*
X186663300Y-94997600D01*
X173990000Y-80689500D02*
X173990000Y-82324400D01*
X138621900Y-86042200D02*
X138621900Y-85907500D01*
X190500000Y-90130000D02*
X190500000Y-91160900D01*
X179050000Y-102610900D02*
X179050000Y-104140000D01*
X163850000Y-104140000D02*
X146694400Y-86984400D01*
X137545000Y-85907500D02*
X138621900Y-85907500D01*
X146694400Y-86984400D02*
X139564100Y-86984400D01*
%TO.N,Net-(IC1-VCC)*%
X166370000Y-80689500D02*
X166370000Y-79054600D01*
X181924600Y-79054600D02*
X166370000Y-79054600D01*
X190500000Y-87630000D02*
X181924600Y-79054600D01*
%TO.N,Net-(Y1-VDD)*%
X141415200Y-124129800D02*
X141415200Y-129914200D01*
X129610200Y-112324800D02*
X141415200Y-124129800D01*
%TO.N,Net-(U1-XTAL_N)*%
X98335900Y-117487200D02*
X132561100Y-117487200D01*
X132561100Y-117487200D02*
X136701700Y-121627800D01*
%TD*%
M02*
