%TF.GenerationSoftware,KiCad,Pcbnew,7.0.7*%
%TF.CreationDate,2024-06-03T23:51:36+07:00*%
%TF.ProjectId,Final Project_Group 4_Electronic Circuit 2,46696e61-6c20-4507-926f-6a6563745f47,rev?*%
%TF.SameCoordinates,Original*%
%TF.FileFunction,Paste,Top*%
%TF.FilePolarity,Positive*%
%FSLAX46Y46*%
G04 Gerber Fmt 4.6, Leading zero omitted, Abs format (unit mm)*
G04 Created by KiCad (PCBNEW 7.0.7) date 2024-06-03 23:51:36*
%MOMM*%
%LPD*%
G01*
G04 APERTURE LIST*
G04 Aperture macros list*
%AMRoundRect*
0 Rectangle with rounded corners*
0 $1 Rounding radius*
0 $2 $3 $4 $5 $6 $7 $8 $9 X,Y pos of 4 corners*
0 Add a 4 corners polygon primitive as box body*
4,1,4,$2,$3,$4,$5,$6,$7,$8,$9,$2,$3,0*
0 Add four circle primitives for the rounded corners*
1,1,$1+$1,$2,$3*
1,1,$1+$1,$4,$5*
1,1,$1+$1,$6,$7*
1,1,$1+$1,$8,$9*
0 Add four rect primitives between the rounded corners*
20,1,$1+$1,$2,$3,$4,$5,0*
20,1,$1+$1,$4,$5,$6,$7,0*
20,1,$1+$1,$6,$7,$8,$9,0*
20,1,$1+$1,$8,$9,$2,$3,0*%
G04 Aperture macros list end*
%ADD10R,0.809800X0.220000*%
%ADD11R,0.220000X0.809800*%
%ADD12R,4.000000X4.000000*%
%ADD13RoundRect,0.250000X-0.275000X-0.700000X0.275000X-0.700000X0.275000X0.700000X-0.275000X0.700000X0*%
%ADD14RoundRect,0.079500X-0.079500X-0.100500X0.079500X-0.100500X0.079500X0.100500X-0.079500X0.100500X0*%
%ADD15R,1.000000X0.900000*%
%ADD16R,0.600000X2.200000*%
%ADD17RoundRect,0.150000X-0.825000X-0.150000X0.825000X-0.150000X0.825000X0.150000X-0.825000X0.150000X0*%
%ADD18RoundRect,0.381000X0.381000X-0.762000X0.381000X0.762000X-0.381000X0.762000X-0.381000X-0.762000X0*%
%ADD19R,2.030000X2.540000*%
%ADD20R,0.550000X0.250000*%
G04 APERTURE END LIST*
D10*
%TO.C,U1*%
X141334900Y-105985000D03*
X141334900Y-106385000D03*
X141334900Y-106785000D03*
X141334900Y-107185000D03*
X141334900Y-107585000D03*
X141334900Y-107985000D03*
X141334900Y-108385000D03*
X141334900Y-108785000D03*
X141334900Y-109185000D03*
X141334900Y-109585000D03*
X141334900Y-109985000D03*
X141334900Y-110385000D03*
X141334900Y-110785000D03*
X141334900Y-111185000D03*
D11*
X142180000Y-112030100D03*
X142580000Y-112030100D03*
X142980000Y-112030100D03*
X143380000Y-112030100D03*
X143780000Y-112030100D03*
X144180000Y-112030100D03*
X144580000Y-112030100D03*
X144980000Y-112030100D03*
X145380000Y-112030100D03*
X145780000Y-112030100D03*
X146180000Y-112030100D03*
X146580000Y-112030100D03*
X146980000Y-112030100D03*
X147380000Y-112030100D03*
D10*
X148225100Y-111185000D03*
X148225100Y-110785000D03*
X148225100Y-110385000D03*
X148225100Y-109985000D03*
X148225100Y-109585000D03*
X148225100Y-109185000D03*
X148225100Y-108785000D03*
X148225100Y-108385000D03*
X148225100Y-107985000D03*
X148225100Y-107585000D03*
X148225100Y-107185000D03*
X148225100Y-106785000D03*
X148225100Y-106385000D03*
X148225100Y-105985000D03*
D11*
X147380000Y-105139900D03*
X146980000Y-105139900D03*
X146580000Y-105139900D03*
X146180000Y-105139900D03*
X145780000Y-105139900D03*
X145380000Y-105139900D03*
X144980000Y-105139900D03*
X144580000Y-105139900D03*
X144180000Y-105139900D03*
X143780000Y-105139900D03*
X143380000Y-105139900D03*
X142980000Y-105139900D03*
X142580000Y-105139900D03*
X142180000Y-105139900D03*
D12*
X144780000Y-108585000D03*
%TD*%
D13*
%TO.C,C12*%
X110525000Y-130810000D03*
X113675000Y-130810000D03*
%TD*%
D14*
%TO.C,R9*%
X147930000Y-102870000D03*
X148620000Y-102870000D03*
%TD*%
D13*
%TO.C,C6*%
X102903000Y-123232000D03*
X106053000Y-123232000D03*
%TD*%
D15*
%TO.C,Y1*%
X98040000Y-118560000D03*
X98040000Y-120660000D03*
X99940000Y-120660000D03*
X99940000Y-118560000D03*
%TD*%
D13*
%TO.C,C7*%
X147345000Y-122555000D03*
X150495000Y-122555000D03*
%TD*%
%TO.C,C16*%
X133045000Y-123190000D03*
X136195000Y-123190000D03*
%TD*%
D14*
%TO.C,ResistorDHT22*%
X123770000Y-96520000D03*
X124460000Y-96520000D03*
%TD*%
%TO.C,R7*%
X150440000Y-113665000D03*
X151130000Y-113665000D03*
%TD*%
D13*
%TO.C,C9*%
X126060000Y-123190000D03*
X129210000Y-123190000D03*
%TD*%
D16*
%TO.C,IC1*%
X121285000Y-115725000D03*
X122555000Y-115725000D03*
X123825000Y-115725000D03*
X125095000Y-115725000D03*
X126365000Y-115725000D03*
X127635000Y-115725000D03*
X128905000Y-115725000D03*
X130175000Y-115725000D03*
X130175000Y-106525000D03*
X128905000Y-106525000D03*
X127635000Y-106525000D03*
X126365000Y-106525000D03*
X125095000Y-106525000D03*
X123825000Y-106525000D03*
X122555000Y-106525000D03*
X121285000Y-106525000D03*
%TD*%
D13*
%TO.C,C2*%
X124790000Y-130810000D03*
X127940000Y-130810000D03*
%TD*%
D14*
%TO.C,R6*%
X153670000Y-110490000D03*
X154360000Y-110490000D03*
%TD*%
D13*
%TO.C,C3*%
X118725500Y-123319500D03*
X121875500Y-123319500D03*
%TD*%
%TO.C,C14*%
X157175000Y-122555000D03*
X160325000Y-122555000D03*
%TD*%
%TO.C,C11*%
X156239500Y-130810000D03*
X159389500Y-130810000D03*
%TD*%
%TO.C,C15*%
X139395000Y-130810000D03*
X142545000Y-130810000D03*
%TD*%
%TO.C,C1*%
X140139000Y-122994000D03*
X143289000Y-122994000D03*
%TD*%
D14*
%TO.C,R3*%
X145360000Y-116840000D03*
X146050000Y-116840000D03*
%TD*%
D13*
%TO.C,C8*%
X132375000Y-130810000D03*
X135525000Y-130810000D03*
%TD*%
%TO.C,C13*%
X111118000Y-123293000D03*
X114268000Y-123293000D03*
%TD*%
D14*
%TO.C,R4*%
X153640000Y-107950000D03*
X154330000Y-107950000D03*
%TD*%
D13*
%TO.C,L2*%
X117875000Y-130810000D03*
X121025000Y-130810000D03*
%TD*%
D17*
%TO.C,U4*%
X147450000Y-95250000D03*
X147450000Y-96520000D03*
X147450000Y-97790000D03*
X147450000Y-99060000D03*
X152400000Y-99060000D03*
X152400000Y-97790000D03*
X152400000Y-96520000D03*
X152400000Y-95250000D03*
%TD*%
D18*
%TO.C,M1*%
X112930000Y-114300000D03*
X112930000Y-109220000D03*
X112930000Y-99060000D03*
X112930000Y-93980000D03*
X107850000Y-114300000D03*
X107850000Y-109220000D03*
X107850000Y-99060000D03*
X107850000Y-93980000D03*
%TD*%
D14*
%TO.C,C10*%
X137795000Y-114935000D03*
X138485000Y-114935000D03*
%TD*%
%TO.C,R1*%
X123770000Y-92710000D03*
X124460000Y-92710000D03*
%TD*%
%TO.C,R10*%
X136500000Y-105410000D03*
X137190000Y-105410000D03*
%TD*%
D13*
%TO.C,C5*%
X103175000Y-130810000D03*
X106325000Y-130810000D03*
%TD*%
D19*
%TO.C,E1*%
X74385000Y-122680000D03*
X79465000Y-122680000D03*
X84545000Y-122680000D03*
%TD*%
D13*
%TO.C,L1*%
X164490000Y-130810000D03*
X167640000Y-130810000D03*
%TD*%
D14*
%TO.C,R8*%
X150440000Y-110490000D03*
X151130000Y-110490000D03*
%TD*%
D20*
%TO.C,U3*%
X130600000Y-97790000D03*
X130600000Y-98290000D03*
X130600000Y-98790000D03*
X133350000Y-98790000D03*
X133350000Y-98290000D03*
X133350000Y-97790000D03*
%TD*%
D14*
%TO.C,R5*%
X150440000Y-106680000D03*
X151130000Y-106680000D03*
%TD*%
D13*
%TO.C,C4*%
X146678500Y-130803500D03*
X149828500Y-130803500D03*
%TD*%
D14*
%TO.C,R2*%
X123770000Y-101600000D03*
X124460000Y-101600000D03*
%TD*%
M02*
